# xmcd CD database file
#
# Track frame offsets:
#	150
#	15633
#	29664
#	43711
#	61006
#	73501
#	89987
#	107376
#	124701
#	135245
#	149652
#	162128
#	179120
#	196793
#	213545
#	226256
#	246032
#	262387
#	277274
#	294503
#
# Disc length: 4095 seconds
#
# Revision: 0
# Processed by: cddbd v1.5.2PL0 Copyright (c) Steve Scherf et al.
# Submitted via: CDex 1.70beta2
#
DISCID=360ffd14
DTITLE=Jazz in Bossa - Urban Jazz (R&B)
DYEAR=2010
DGENRE=Jazz
TTITLE0=Cris_Delanno_-_True_colors.mp3
TTITLE1=Ellza_Lacerda_-_I_will_always_love_you.mp3
TTITLE2=Monique_Kessous_-_You_and_I_both.mp3
TTITLE3=Cris_Delanno_-_West_end_girl.mp3
TTITLE4=Barbara_Mendes_-_Golden_lady.mp3
TTITLE5=Monique_Kessous_-_Baby_come_back.mp3
TTITLE6=Pedro_-_Beautiful_girls.mp3
TTITLE7=Milk_Bossa_-_Like_a_virgin.mp3
TTITLE8=Monique_Kessous_-_Yesterday.mp3
TTITLE9=Cris_Delanno_-_Life.mp3
TTITLE10=Marcelo_Rezende_-_I_want_it_that_way.mp3
TTITLE11=Rachelle_-_Bleeding_love.mp3
TTITLE12=Maira_-_Every_breath_u_take.mp3
TTITLE13=Lulu_Jopper_-_Got_to_get_into_my_life.mp3
TTITLE14=Rachelle_-_Venus.mp3
TTITLE15=Cris_Delanno_-_Big_girls_don't_cry.mp3
TTITLE16=Flavio_Mendes_-_Kung_fu_fighting.mp3
TTITLE17=Mauriclo_Dettone_-_Another_star.mp3
TTITLE18=Paulo_Loureiro_-_Uuchained_melody.mp3
TTITLE19=Paulo_Loureiro_-_All_you_need_is_love.mp3
EXTD=YEAR: 2010
EXTT0=
EXTT1=
EXTT2=
EXTT3=
EXTT4=
EXTT5=
EXTT6=
EXTT7=
EXTT8=
EXTT9=
EXTT10=
EXTT11=
EXTT12=
EXTT13=
EXTT14=
EXTT15=
EXTT16=
EXTT17=
EXTT18=
EXTT19=
PLAYORDER=
